<svg xmlns="http://www.w3.org/2000/svg" xmlns:xlink="http://www.w3.org/1999/xlink" width="40" zoomAndPan="magnify" viewBox="0 0 30 30.000001" height="40" preserveAspectRatio="xMidYMid meet" version="1.0"><defs><clipPath id="cb1c9ed533"><path d="M 14 13 L 17 13 L 17 16 L 14 16 Z M 14 13 " clip-rule="nonzero"/></clipPath><clipPath id="cc3b80fef9"><path d="M 13.097656 14.382812 L 16.417969 12.914062 L 17.003906 14.242188 L 13.6875 15.710938 Z M 13.097656 14.382812 " clip-rule="nonzero"/></clipPath><clipPath id="316e355338"><path d="M 13.097656 14.382812 L 16.417969 12.914062 L 17.003906 14.242188 L 13.6875 15.710938 Z M 13.097656 14.382812 " clip-rule="nonzero"/></clipPath><clipPath id="23e19fb5c0"><path d="M 13.097656 14.382812 L 16.417969 12.914062 L 17.003906 14.242188 L 13.6875 15.710938 Z M 13.097656 14.382812 " clip-rule="nonzero"/></clipPath><clipPath id="3a37c0b517"><path d="M 14 13 L 16 13 L 16 15 L 14 15 Z M 14 13 " clip-rule="nonzero"/></clipPath><clipPath id="c8f980d606"><path d="M 13.097656 14.382812 L 16.417969 12.914062 L 17.003906 14.242188 L 13.6875 15.710938 Z M 13.097656 14.382812 " clip-rule="nonzero"/></clipPath><clipPath id="3bb041a2f8"><path d="M 13.097656 14.382812 L 16.417969 12.914062 L 17.003906 14.242188 L 13.6875 15.710938 Z M 13.097656 14.382812 " clip-rule="nonzero"/></clipPath><clipPath id="03553c70a3"><path d="M 13.097656 14.382812 L 16.417969 12.914062 L 17.003906 14.242188 L 13.6875 15.710938 Z M 13.097656 14.382812 " clip-rule="nonzero"/></clipPath><clipPath id="118e69f149"><path d="M 15 13 L 17 13 L 17 14 L 15 14 Z M 15 13 " clip-rule="nonzero"/></clipPath><clipPath id="2e762dccc9"><path d="M 13.097656 14.382812 L 16.417969 12.914062 L 17.003906 14.242188 L 13.6875 15.710938 Z M 13.097656 14.382812 " clip-rule="nonzero"/></clipPath><clipPath id="6407f7eeda"><path d="M 13.097656 14.382812 L 16.417969 12.914062 L 17.003906 14.242188 L 13.6875 15.710938 Z M 13.097656 14.382812 " clip-rule="nonzero"/></clipPath><clipPath id="601e734e0e"><path d="M 13.097656 14.382812 L 16.417969 12.914062 L 17.003906 14.242188 L 13.6875 15.710938 Z M 13.097656 14.382812 " clip-rule="nonzero"/></clipPath><clipPath id="d26cef35bd"><path d="M 13 14 L 15 14 L 15 15 L 13 15 Z M 13 14 " clip-rule="nonzero"/></clipPath><clipPath id="170bff31c7"><path d="M 13.097656 14.382812 L 16.417969 12.914062 L 17.003906 14.242188 L 13.6875 15.710938 Z M 13.097656 14.382812 " clip-rule="nonzero"/></clipPath><clipPath id="bcb27a3bb0"><path d="M 13.097656 14.382812 L 16.417969 12.914062 L 17.003906 14.242188 L 13.6875 15.710938 Z M 13.097656 14.382812 " clip-rule="nonzero"/></clipPath><clipPath id="16965f9525"><path d="M 13.097656 14.382812 L 16.417969 12.914062 L 17.003906 14.242188 L 13.6875 15.710938 Z M 13.097656 14.382812 " clip-rule="nonzero"/></clipPath><clipPath id="92a49ce7b1"><path d="M 13 15 L 14 15 L 14 16 L 13 16 Z M 13 15 " clip-rule="nonzero"/></clipPath><clipPath id="1597aa63a7"><path d="M 13.097656 14.382812 L 16.417969 12.914062 L 17.003906 14.242188 L 13.6875 15.710938 Z M 13.097656 14.382812 " clip-rule="nonzero"/></clipPath><clipPath id="7916910541"><path d="M 13.097656 14.382812 L 16.417969 12.914062 L 17.003906 14.242188 L 13.6875 15.710938 Z M 13.097656 14.382812 " clip-rule="nonzero"/></clipPath><clipPath id="d47059e73b"><path d="M 13.097656 14.382812 L 16.417969 12.914062 L 17.003906 14.242188 L 13.6875 15.710938 Z M 13.097656 14.382812 " clip-rule="nonzero"/></clipPath><clipPath id="d1a5316409"><path d="M 13 14 L 14 14 L 14 15 L 13 15 Z M 13 14 " clip-rule="nonzero"/></clipPath><clipPath id="d9ee9bb6d6"><path d="M 13.097656 14.382812 L 16.417969 12.914062 L 17.003906 14.242188 L 13.6875 15.710938 Z M 13.097656 14.382812 " clip-rule="nonzero"/></clipPath><clipPath id="c237f46f67"><path d="M 13.097656 14.382812 L 16.417969 12.914062 L 17.003906 14.242188 L 13.6875 15.710938 Z M 13.097656 14.382812 " clip-rule="nonzero"/></clipPath><clipPath id="632f229513"><path d="M 13.097656 14.382812 L 16.417969 12.914062 L 17.003906 14.242188 L 13.6875 15.710938 Z M 13.097656 14.382812 " clip-rule="nonzero"/></clipPath><clipPath id="2c6c658052"><path d="M 14 13 L 15 13 L 15 15 L 14 15 Z M 14 13 " clip-rule="nonzero"/></clipPath><clipPath id="d12159cdf2"><path d="M 13.097656 14.382812 L 16.417969 12.914062 L 17.003906 14.242188 L 13.6875 15.710938 Z M 13.097656 14.382812 " clip-rule="nonzero"/></clipPath><clipPath id="56d0e2200a"><path d="M 13.097656 14.382812 L 16.417969 12.914062 L 17.003906 14.242188 L 13.6875 15.710938 Z M 13.097656 14.382812 " clip-rule="nonzero"/></clipPath><clipPath id="fcb6a32ac3"><path d="M 13.097656 14.382812 L 16.417969 12.914062 L 17.003906 14.242188 L 13.6875 15.710938 Z M 13.097656 14.382812 " clip-rule="nonzero"/></clipPath><clipPath id="c3a7896c93"><path d="M 15 13 L 16 13 L 16 14 L 15 14 Z M 15 13 " clip-rule="nonzero"/></clipPath><clipPath id="237d7a8778"><path d="M 13.097656 14.382812 L 16.417969 12.914062 L 17.003906 14.242188 L 13.6875 15.710938 Z M 13.097656 14.382812 " clip-rule="nonzero"/></clipPath><clipPath id="251aa401bd"><path d="M 13.097656 14.382812 L 16.417969 12.914062 L 17.003906 14.242188 L 13.6875 15.710938 Z M 13.097656 14.382812 " clip-rule="nonzero"/></clipPath><clipPath id="6c48916281"><path d="M 13.097656 14.382812 L 16.417969 12.914062 L 17.003906 14.242188 L 13.6875 15.710938 Z M 13.097656 14.382812 " clip-rule="nonzero"/></clipPath><clipPath id="5440979d7a"><path d="M 15 13 L 17 13 L 17 14 L 15 14 Z M 15 13 " clip-rule="nonzero"/></clipPath><clipPath id="c925f4fc49"><path d="M 13.097656 14.382812 L 16.417969 12.914062 L 17.003906 14.242188 L 13.6875 15.710938 Z M 13.097656 14.382812 " clip-rule="nonzero"/></clipPath><clipPath id="9d50c8c4f3"><path d="M 13.097656 14.382812 L 16.417969 12.914062 L 17.003906 14.242188 L 13.6875 15.710938 Z M 13.097656 14.382812 " clip-rule="nonzero"/></clipPath><clipPath id="1777a333cb"><path d="M 13.097656 14.382812 L 16.417969 12.914062 L 17.003906 14.242188 L 13.6875 15.710938 Z M 13.097656 14.382812 " clip-rule="nonzero"/></clipPath><clipPath id="96da8c35b5"><path d="M 16 13 L 17 13 L 17 14 L 16 14 Z M 16 13 " clip-rule="nonzero"/></clipPath><clipPath id="e34ba367b9"><path d="M 13.097656 14.382812 L 16.417969 12.914062 L 17.003906 14.242188 L 13.6875 15.710938 Z M 13.097656 14.382812 " clip-rule="nonzero"/></clipPath><clipPath id="a92da2bede"><path d="M 13.097656 14.382812 L 16.417969 12.914062 L 17.003906 14.242188 L 13.6875 15.710938 Z M 13.097656 14.382812 " clip-rule="nonzero"/></clipPath><clipPath id="d6bd6a35a6"><path d="M 13.097656 14.382812 L 16.417969 12.914062 L 17.003906 14.242188 L 13.6875 15.710938 Z M 13.097656 14.382812 " clip-rule="nonzero"/></clipPath><clipPath id="3c1ebba3cb"><path d="M 16 13 L 17 13 L 17 15 L 16 15 Z M 16 13 " clip-rule="nonzero"/></clipPath><clipPath id="44b9e8d898"><path d="M 13.097656 14.382812 L 16.417969 12.914062 L 17.003906 14.242188 L 13.6875 15.710938 Z M 13.097656 14.382812 " clip-rule="nonzero"/></clipPath><clipPath id="8aeb9b7bf6"><path d="M 13.097656 14.382812 L 16.417969 12.914062 L 17.003906 14.242188 L 13.6875 15.710938 Z M 13.097656 14.382812 " clip-rule="nonzero"/></clipPath><clipPath id="9f6b7c0a57"><path d="M 13.097656 14.382812 L 16.417969 12.914062 L 17.003906 14.242188 L 13.6875 15.710938 Z M 13.097656 14.382812 " clip-rule="nonzero"/></clipPath><clipPath id="4d50107bc7"><path d="M 0.484375 0 L 1.65625 0 L 1.65625 1.453125 L 0.484375 1.453125 Z M 0.484375 0 " clip-rule="nonzero"/></clipPath></defs><g clip-path="url(#cb1c9ed533)"><g clip-path="url(#cc3b80fef9)"><g clip-path="url(#316e355338)"><g clip-path="url(#23e19fb5c0)"><path fill="#fccb1e" d="M 16.164062 14.550781 C 15.644531 14.714844 14.980469 15 14.523438 15.292969 C 14.425781 15.078125 14.269531 14.886719 14.113281 14.703125 C 14.367188 14.75 14.632812 14.765625 14.90625 14.753906 C 15.011719 14.53125 15.078125 14.28125 15.101562 14.082031 C 15.265625 14.199219 15.496094 14.328125 15.675781 14.410156 C 15.804688 14.199219 15.898438 14.003906 16.011719 13.820312 C 16.019531 14.121094 16.078125 14.351562 16.164062 14.558594 " fill-opacity="1" fill-rule="nonzero"/><path fill="#100f0d" d="M 16.164062 14.511719 C 15.746094 14.648438 15.335938 14.8125 14.941406 15.011719 C 14.816406 15.078125 14.628906 15.234375 14.515625 15.167969 C 14.53125 15.175781 14.371094 14.945312 14.378906 14.957031 C 14.308594 14.859375 14.230469 14.765625 14.15625 14.671875 C 14.132812 14.695312 14.113281 14.71875 14.09375 14.742188 C 14.355469 14.785156 14.617188 14.800781 14.894531 14.792969 C 14.914062 14.792969 14.941406 14.78125 14.949219 14.765625 C 14.988281 14.671875 15.011719 14.621094 15.046875 14.527344 C 15.054688 14.496094 15.109375 14.203125 15.132812 14.1875 C 15.160156 14.164062 15.585938 14.417969 15.644531 14.445312 C 15.667969 14.457031 15.703125 14.445312 15.71875 14.421875 C 15.835938 14.226562 15.9375 14.027344 16.054688 13.832031 C 16.023438 13.832031 15.996094 13.832031 15.964844 13.832031 C 15.976562 14.097656 16.023438 14.339844 16.117188 14.578125 C 16.136719 14.625 16.226562 14.582031 16.207031 14.539062 C 16.117188 14.304688 16.074219 14.066406 16.058594 13.8125 C 16.058594 13.769531 15.992188 13.773438 15.96875 13.8125 C 15.90625 13.914062 15.773438 14.269531 15.652344 14.3125 C 15.519531 14.363281 15.222656 14.109375 15.132812 14.050781 C 15.109375 14.035156 15.058594 14.054688 15.054688 14.082031 C 15.03125 14.253906 15.019531 14.480469 14.867188 14.621094 C 14.742188 14.738281 14.738281 14.722656 14.578125 14.714844 C 14.429688 14.707031 14.28125 14.6875 14.136719 14.664062 C 14.09375 14.65625 14.050781 14.699219 14.074219 14.730469 C 14.226562 14.914062 14.371094 15.101562 14.480469 15.3125 C 14.492188 15.335938 14.523438 15.339844 14.550781 15.320312 C 15.050781 15.007812 15.605469 14.773438 16.167969 14.589844 C 16.226562 14.570312 16.222656 14.492188 16.164062 14.511719 " fill-opacity="1" fill-rule="nonzero"/></g></g></g></g><g clip-path="url(#3a37c0b517)"><g clip-path="url(#c8f980d606)"><g clip-path="url(#3bb041a2f8)"><g clip-path="url(#03553c70a3)"><path fill="#faf783" d="M 15.101562 14.125 C 15.160156 14.109375 15.210938 14.066406 15.226562 14.019531 C 15.242188 13.972656 15.214844 13.921875 15.160156 13.914062 C 15.136719 13.914062 15.109375 13.917969 15.082031 13.925781 C 14.996094 13.960938 14.9375 14.046875 14.953125 14.113281 C 14.953125 14.125 14.957031 14.136719 14.96875 14.144531 C 14.980469 14.152344 15.003906 14.152344 15.023438 14.152344 C 15.066406 14.148438 15.113281 14.136719 15.152344 14.117188 " fill-opacity="1" fill-rule="nonzero"/><path fill="#100f0d" d="M 15.113281 14.152344 C 15.207031 14.121094 15.285156 14.035156 15.261719 13.957031 C 15.238281 13.882812 15.140625 13.867188 15.050781 13.910156 C 14.960938 13.957031 14.902344 14.046875 14.914062 14.121094 C 14.933594 14.214844 15.078125 14.179688 15.164062 14.144531 C 15.207031 14.128906 15.1875 14.074219 15.140625 14.09375 C 15.09375 14.113281 14.988281 14.148438 14.984375 14.089844 C 14.984375 14.042969 15.019531 13.992188 15.070312 13.964844 C 15.125 13.933594 15.1875 13.941406 15.195312 13.992188 C 15.203125 14.042969 15.144531 14.082031 15.089844 14.101562 C 15.046875 14.117188 15.070312 14.167969 15.113281 14.152344 " fill-opacity="1" fill-rule="nonzero"/></g></g></g></g><g clip-path="url(#118e69f149)"><g clip-path="url(#2e762dccc9)"><g clip-path="url(#6407f7eeda)"><g clip-path="url(#601e734e0e)"><path fill="#faf783" d="M 15.976562 13.832031 C 16.003906 13.832031 16.027344 13.828125 16.054688 13.824219 C 16.105469 13.816406 16.15625 13.796875 16.1875 13.761719 C 16.21875 13.726562 16.222656 13.671875 16.183594 13.65625 C 16.171875 13.648438 16.15625 13.648438 16.140625 13.644531 C 16.097656 13.640625 16.050781 13.644531 16.007812 13.664062 C 15.988281 13.675781 15.972656 13.6875 15.957031 13.703125 C 15.9375 13.71875 15.921875 13.738281 15.917969 13.757812 C 15.914062 13.785156 15.933594 13.804688 15.960938 13.8125 C 15.984375 13.824219 16.019531 13.820312 16.050781 13.816406 " fill-opacity="1" fill-rule="nonzero"/><path fill="#100f0d" d="M 15.96875 13.859375 C 16.0625 13.863281 16.191406 13.835938 16.234375 13.746094 C 16.28125 13.65625 16.207031 13.613281 16.113281 13.613281 C 16.027344 13.613281 15.921875 13.664062 15.886719 13.742188 C 15.851562 13.835938 15.96875 13.855469 16.050781 13.84375 C 16.097656 13.839844 16.09375 13.78125 16.046875 13.789062 C 15.984375 13.796875 15.917969 13.769531 15.988281 13.710938 C 16.027344 13.679688 16.070312 13.671875 16.117188 13.675781 C 16.175781 13.679688 16.203125 13.71875 16.144531 13.761719 C 16.097656 13.796875 16.035156 13.800781 15.984375 13.800781 C 15.941406 13.800781 15.925781 13.859375 15.96875 13.859375 " fill-opacity="1" fill-rule="nonzero"/></g></g></g></g><g clip-path="url(#d26cef35bd)"><g clip-path="url(#170bff31c7)"><g clip-path="url(#bcb27a3bb0)"><g clip-path="url(#16965f9525)"><path fill="#faf783" d="M 14.132812 14.710938 C 14.171875 14.667969 14.183594 14.617188 14.171875 14.574219 C 14.167969 14.5625 14.164062 14.554688 14.152344 14.546875 C 14.148438 14.542969 14.136719 14.542969 14.125 14.539062 C 14.085938 14.539062 14.039062 14.558594 14.007812 14.585938 C 13.980469 14.605469 13.960938 14.628906 13.945312 14.652344 C 13.933594 14.671875 13.925781 14.695312 13.925781 14.714844 C 13.925781 14.734375 13.9375 14.753906 13.960938 14.761719 C 13.980469 14.769531 14.007812 14.765625 14.03125 14.753906 C 14.085938 14.734375 14.136719 14.695312 14.15625 14.648438 " fill-opacity="1" fill-rule="nonzero"/><path fill="#100f0d" d="M 14.160156 14.726562 C 14.207031 14.667969 14.246094 14.5625 14.175781 14.523438 C 14.101562 14.476562 13.984375 14.554688 13.933594 14.617188 C 13.886719 14.679688 13.863281 14.777344 13.957031 14.792969 C 14.050781 14.808594 14.152344 14.726562 14.1875 14.65625 C 14.207031 14.621094 14.144531 14.605469 14.125 14.640625 C 14.105469 14.679688 14.066406 14.71875 14.015625 14.730469 C 13.929688 14.75 13.96875 14.664062 14 14.632812 C 14.023438 14.601562 14.105469 14.539062 14.136719 14.582031 C 14.15625 14.613281 14.128906 14.667969 14.105469 14.695312 C 14.074219 14.730469 14.128906 14.761719 14.160156 14.726562 " fill-opacity="1" fill-rule="nonzero"/></g></g></g></g><g clip-path="url(#92a49ce7b1)"><g clip-path="url(#1597aa63a7)"><g clip-path="url(#7916910541)"><g clip-path="url(#d47059e73b)"><path fill="#100f0d" d="M 13.804688 15 C 13.699219 15.03125 13.59375 15.0625 13.484375 15.09375 C 13.441406 15.105469 13.445312 15.164062 13.488281 15.148438 C 13.597656 15.121094 13.703125 15.089844 13.808594 15.058594 C 13.855469 15.046875 13.851562 14.988281 13.804688 15 " fill-opacity="1" fill-rule="nonzero"/></g></g></g></g><g clip-path="url(#d1a5316409)"><g clip-path="url(#d9ee9bb6d6)"><g clip-path="url(#c237f46f67)"><g clip-path="url(#632f229513)"><path fill="#100f0d" d="M 13.785156 14.523438 C 13.710938 14.492188 13.628906 14.484375 13.539062 14.496094 C 13.492188 14.5 13.496094 14.558594 13.542969 14.550781 C 13.613281 14.542969 13.679688 14.550781 13.738281 14.574219 C 13.777344 14.589844 13.824219 14.539062 13.785156 14.523438 " fill-opacity="1" fill-rule="nonzero"/></g></g></g></g><g clip-path="url(#2c6c658052)"><g clip-path="url(#d12159cdf2)"><g clip-path="url(#56d0e2200a)"><g clip-path="url(#fcb6a32ac3)"><path fill="#100f0d" d="M 14.488281 14.066406 C 14.453125 14.007812 14.414062 13.949219 14.375 13.894531 C 14.355469 13.863281 14.292969 13.90625 14.316406 13.9375 C 14.351562 13.988281 14.386719 14.042969 14.417969 14.09375 C 14.4375 14.125 14.503906 14.097656 14.488281 14.066406 " fill-opacity="1" fill-rule="nonzero"/></g></g></g></g><g clip-path="url(#c3a7896c93)"><g clip-path="url(#237d7a8778)"><g clip-path="url(#251aa401bd)"><g clip-path="url(#6c48916281)"><path fill="#100f0d" d="M 15.339844 13.644531 C 15.320312 13.585938 15.308594 13.523438 15.304688 13.460938 C 15.300781 13.421875 15.230469 13.4375 15.234375 13.476562 C 15.238281 13.542969 15.253906 13.609375 15.273438 13.671875 C 15.285156 13.707031 15.351562 13.679688 15.339844 13.644531 " fill-opacity="1" fill-rule="nonzero"/></g></g></g></g><g clip-path="url(#5440979d7a)"><g clip-path="url(#c925f4fc49)"><g clip-path="url(#9d50c8c4f3)"><g clip-path="url(#1777a333cb)"><path fill="#100f0d" d="M 16.019531 13.421875 C 16.070312 13.367188 16.125 13.316406 16.179688 13.261719 C 16.210938 13.230469 16.15625 13.203125 16.125 13.234375 C 16.070312 13.285156 16.019531 13.339844 15.964844 13.390625 C 15.929688 13.421875 15.984375 13.453125 16.019531 13.421875 " fill-opacity="1" fill-rule="nonzero"/></g></g></g></g><g clip-path="url(#96da8c35b5)"><g clip-path="url(#e34ba367b9)"><g clip-path="url(#a92da2bede)"><g clip-path="url(#d6bd6a35a6)"><path fill="#100f0d" d="M 16.484375 13.671875 C 16.542969 13.644531 16.605469 13.617188 16.664062 13.589844 C 16.707031 13.570312 16.683594 13.519531 16.640625 13.539062 C 16.582031 13.566406 16.519531 13.59375 16.460938 13.621094 C 16.417969 13.640625 16.4375 13.691406 16.484375 13.671875 " fill-opacity="1" fill-rule="nonzero"/></g></g></g></g><g clip-path="url(#3c1ebba3cb)"><g clip-path="url(#44b9e8d898)"><g clip-path="url(#8aeb9b7bf6)"><g clip-path="url(#9f6b7c0a57)"><path fill="#100f0d" d="M 16.585938 14.011719 C 16.628906 13.988281 16.671875 13.964844 16.714844 13.9375 C 16.753906 13.914062 16.714844 13.875 16.671875 13.898438 C 16.632812 13.921875 16.589844 13.945312 16.546875 13.972656 C 16.507812 13.996094 16.546875 14.035156 16.585938 14.011719 " fill-opacity="1" fill-rule="nonzero"/></g></g></g></g><g clip-path="url(#4d50107bc7)"><path fill="#f2f2f2" d="M 0.589844 0 C 0.605469 0 0.617188 0.015625 0.847656 0.277344 C 0.980469 0.429688 1.09375 0.5625 1.113281 0.585938 L 1.386719 0.355469 C 1.621094 0.15625 1.664062 0.121094 1.675781 0.121094 C 1.683594 0.121094 1.695312 0.125 1.703125 0.132812 C 1.707031 0.136719 1.710938 0.148438 1.710938 0.15625 C 1.710938 0.164062 1.671875 0.402344 1.621094 0.683594 C 1.570312 0.96875 1.527344 1.203125 1.527344 1.210938 C 1.523438 1.214844 1.519531 1.21875 1.511719 1.222656 C 1.503906 1.230469 1.375 1.25 1.207031 1.273438 C 1.046875 1.296875 0.730469 1.34375 0.503906 1.375 C 0.277344 1.410156 0.0664062 1.4375 -0.015625 1.453125 L -0.0625 1.429688 L -0.246094 0.96875 C -0.34375 0.71875 -0.433594 0.492188 -0.445312 0.464844 C -0.460938 0.421875 -0.460938 0.417969 -0.453125 0.40625 C -0.449219 0.398438 -0.4375 0.390625 -0.433594 0.386719 C -0.421875 0.386719 -0.347656 0.40625 -0.0664062 0.492188 C 0.125 0.554688 0.285156 0.601562 0.285156 0.601562 C 0.289062 0.601562 0.34375 0.472656 0.414062 0.316406 C 0.484375 0.160156 0.546875 0.0273438 0.550781 0.0195312 C 0.554688 0.0117188 0.5625 0.00390625 0.5625 0.00390625 C 0.566406 0 0.578125 0 0.589844 0 Z M 0.527344 0.246094 C 0.492188 0.328125 0.433594 0.457031 0.402344 0.53125 C 0.347656 0.644531 0.335938 0.671875 0.324219 0.675781 C 0.308594 0.683594 0.304688 0.683594 0.21875 0.65625 C 0.167969 0.640625 0.0195312 0.59375 -0.117188 0.550781 C -0.355469 0.476562 -0.363281 0.476562 -0.355469 0.488281 C -0.351562 0.496094 -0.285156 0.664062 -0.210938 0.859375 C -0.132812 1.054688 -0.0546875 1.25 -0.0390625 1.289062 C -0.0234375 1.332031 -0.0078125 1.367188 -0.00390625 1.371094 C -0.00390625 1.378906 0 1.378906 0.0078125 1.378906 C 0.0117188 1.378906 0.164062 1.355469 0.34375 1.328125 C 0.523438 1.304688 0.847656 1.257812 1.0625 1.226562 C 1.28125 1.195312 1.457031 1.167969 1.457031 1.167969 C 1.457031 1.167969 1.496094 0.960938 1.539062 0.710938 C 1.585938 0.464844 1.621094 0.257812 1.621094 0.257812 C 1.617188 0.253906 1.507812 0.347656 1.371094 0.460938 C 1.183594 0.617188 1.121094 0.667969 1.113281 0.667969 C 1.105469 0.667969 1.09375 0.667969 1.089844 0.664062 C 1.085938 0.660156 1.019531 0.589844 0.949219 0.507812 C 0.875 0.421875 0.765625 0.296875 0.707031 0.226562 L 0.597656 0.0976562 Z M 0.527344 0.246094 " fill-opacity="1" fill-rule="evenodd"/></g></svg>